<svg width="10" height="12" viewBox="0 0 10 12" fill="none" xmlns="http://www.w3.org/2000/svg">
<path d="M5.00001 0C2.36001 0 0.200012 2.16 0.200012 4.8C0.200012 8.04 4.40001 11.7 4.58001 11.88C4.70001 11.94 4.88001 12 5.00001 12C5.12001 12 5.30001 11.94 5.42001 11.88C5.60001 11.7 9.80001 8.04 9.80001 4.8C9.80001 2.16 7.64001 0 5.00001 0ZM5.00001 10.62C3.74001 9.42 1.40001 6.84 1.40001 4.8C1.40001 2.82 3.02001 1.2 5.00001 1.2C6.98001 1.2 8.60001 2.82 8.60001 4.8C8.60001 6.78 6.26001 9.42 5.00001 10.62ZM5.00001 2.4C3.68001 2.4 2.60001 3.48 2.60001 4.8C2.60001 6.12 3.68001 7.2 5.00001 7.2C6.32001 7.2 7.40001 6.12 7.40001 4.8C7.40001 3.48 6.32001 2.4 5.00001 2.4ZM5.00001 6C4.34001 6 3.80001 5.46 3.80001 4.8C3.80001 4.14 4.34001 3.6 5.00001 3.6C5.66001 3.6 6.20001 4.14 6.20001 4.8C6.20001 5.46 5.66001 6 5.00001 6Z" fill="#585D6E"/>
</svg>
